<svg xmlns="http://www.w3.org/2000/svg" version="1.1" xmlns:xlink="http://www.w3.org/1999/xlink" width="800px" height="800px"><svg width="800px" height="800px" viewBox="0 0 1024 1024" class="icon" version="1.1" xmlns="http://www.w3.org/2000/svg"><path d="M511.623806 511.623806m-511.623806 0a511.623806 511.623806 0 1 0 1023.247612 0 511.623806 511.623806 0 1 0-1023.247612 0Z" fill="#F6BB42"></path><path d="M511.623806 511.623806m-383.717854 0a383.717855 383.717855 0 1 0 767.435709 0 383.717855 383.717855 0 1 0-767.435709 0Z" fill="#ED5564"></path><path d="M511.623806 511.623806m-255.059515 0a255.059515 255.059515 0 1 0 510.11903 0 255.059515 255.059515 0 1 0-510.11903 0Z" fill="#F6BB42"></path><path d="M511.623806 511.623806m-166.277737 0a166.277737 166.277737 0 1 0 332.555474 0 166.277737 166.277737 0 1 0-332.555474 0Z" fill="#ED5564"></path><path d="M511.623806 511.623806m-75.238795 0a75.238795 75.238795 0 1 0 150.47759 0 75.238795 75.238795 0 1 0-150.47759 0Z" fill="#F6BB42"></path></svg><style>@media (prefers-color-scheme: light) { :root { filter: none; } }
@media (prefers-color-scheme: dark) { :root { filter: none; } }
</style></svg>