<svg xmlns="http://www.w3.org/2000/svg" version="1.1" xmlns:xlink="http://www.w3.org/1999/xlink" width="1000" height="1000"><g clip-path="url(#SvgjsClipPath1192)"><rect width="1000" height="1000" fill="#a0d468"></rect><g transform="matrix(1.125,0,0,1.125,50,50)"><svg xmlns="http://www.w3.org/2000/svg" version="1.1" xmlns:xlink="http://www.w3.org/1999/xlink" width="800px" height="800px"><svg width="800px" height="800px" viewBox="0 0 1024 1024" class="icon" version="1.1" xmlns="http://www.w3.org/2000/svg"><path d="M511.698314 1024c282.781538 0 469.858462-152.024615 468.676923-512-5.12-259.938462-185.895385-512-468.676923-512S41.446006 247.729231 43.809083 512c-7.089231 365.489231 185.107692 512 467.889231 512z" fill="#A0D468"></path><path d="M518.787545 903.089231a59.076923 59.076923 0 1 0-59.076923-59.076923 59.076923 59.076923 0 0 0 59.076923 59.076923z" fill="#E8EDF5"></path><path d="M733.039852 807.384615m-59.076923 0a59.076923 59.076923 0 1 0 118.153846 0 59.076923 59.076923 0 1 0-118.153846 0Z" fill="#E8EDF5"></path><path d="M299.809083 807.384615m-59.076923 0a59.076923 59.076923 0 1 0 118.153846 0 59.076923 59.076923 0 1 0-118.153846 0Z" fill="#E8EDF5"></path><path d="M260.030622 251.667692l512.787692 0 0 402.904616-512.787692 0 0-402.904616Z" fill="#747B85"></path></svg></svg></g></g><defs><clipPath id="SvgjsClipPath1192"><rect width="1000" height="1000" x="0" y="0" rx="500" ry="500"></rect></clipPath></defs></svg>